<svg width="128" height="128" xmlns="http://www.w3.org/2000/svg">

 <g>
  <title>background</title>
  <rect fill="none" id="canvas_background" height="402" width="582" y="-1" x="-1"/>
 </g>
 <g>
  <title>Layer 1</title>
  <path stroke-width="0" stroke="null" id="svg_6" fill="#F44336" d="m87.550526,63.908987l35.324745,-35.375172c6.505382,-6.514669 6.505382,-17.084067 0,-23.584143c-6.488728,-6.514669 -17.045142,-6.514669 -23.550524,0l-35.324745,35.377257l-35.324745,-35.375172c-6.505382,-6.514669 -17.059714,-6.514669 -23.550524,0c-6.505382,6.497991 -6.505382,17.069474 0,23.584143l35.326826,35.373088l-35.324745,35.375172c-6.505382,6.514669 -6.505382,17.084067 0,23.584143c6.488728,6.514669 17.045142,6.514669 23.550524,0l35.322663,-35.375172l35.324745,35.375172c6.505382,6.514669 17.059714,6.514669 23.550524,0c6.505382,-6.497991 6.505382,-17.069474 0,-23.584143l-35.324745,-35.375172z"/>
 </g>
</svg>