<?xml version="1.0" encoding="UTF-8" standalone="no"?><svg xmlns="http://www.w3.org/2000/svg" xmlns:xlink="http://www.w3.org/1999/xlink"><symbol id="arrow-down" enable-background="new 0 0 32 32" height="32px" version="1.1" viewBox="0 0 32 32" width="32px" xml:space="preserve" xmlns="http://www.w3.org/2000/svg" xmlns:xlink="http://www.w3.org/1999/xlink"><path d="M24.285,11.284L16,19.571l-8.285-8.288c-0.395-0.395-1.034-0.395-1.429,0  c-0.394,0.395-0.394,1.035,0,1.43l8.999,9.002l0,0l0,0c0.394,0.395,1.034,0.395,1.428,0l8.999-9.002  c0.394-0.395,0.394-1.036,0-1.431C25.319,10.889,24.679,10.889,24.285,11.284z"></path></symbol><symbol id="arrow" viewBox="0 0 32 32" xmlns="http://www.w3.org/2000/svg"><g data-name="Layer 2"><path d="M22,9a1,1,0,0,0,0,1.42l4.6,4.6H3.06a1,1,0,1,0,0,2H26.58L22,21.59A1,1,0,0,0,22,23a1,1,0,0,0,1.41,0l6.36-6.36a.88.88,0,0,0,0-1.27L23.42,9A1,1,0,0,0,22,9Z"></path></g></symbol><symbol id="arrow-up" viewBox="0 0 32 32" xmlns="http://www.w3.org/2000/svg"><g data-name="Layer 2"><path d="M9.05,10.05a1,1,0,0,0,1.42,0l4.6-4.6V29a1,1,0,0,0,2,0V5.48l4.57,4.57a1,1,0,0,0,1.41-1.41L16.69,2.27a.9.9,0,0,0-1.27,0L9.05,8.64A1,1,0,0,0,9.05,10.05Z"></path></g></symbol><symbol id="close" width="128" height="128" xmlns="http://www.w3.org/2000/svg"><g><title>background</title><rect height="402" width="582" y="-1" x="-1"></rect></g><g><title>Layer 1</title><path stroke-width="0" d="m87.550526,63.908987l35.324745,-35.375172c6.505382,-6.514669 6.505382,-17.084067 0,-23.584143c-6.488728,-6.514669 -17.045142,-6.514669 -23.550524,0l-35.324745,35.377257l-35.324745,-35.375172c-6.505382,-6.514669 -17.059714,-6.514669 -23.550524,0c-6.505382,6.497991 -6.505382,17.069474 0,23.584143l35.326826,35.373088l-35.324745,35.375172c-6.505382,6.514669 -6.505382,17.084067 0,23.584143c6.488728,6.514669 17.045142,6.514669 23.550524,0l35.322663,-35.375172l35.324745,35.375172c6.505382,6.514669 17.059714,6.514669 23.550524,0c6.505382,-6.497991 6.505382,-17.069474 0,-23.584143l-35.324745,-35.375172z"></path></g></symbol><symbol id="error" height="32" style="overflow:visible;enable-background:new 0 0 32 32" viewBox="0 0 32 32" width="32" xml:space="preserve" xmlns="http://www.w3.org/2000/svg" xmlns:xlink="http://www.w3.org/1999/xlink"><g><g><g><circle cx="16" cy="16" r="16" style="fill:#D72828;"></circle><path d="M14.5,25h3v-3h-3V25z M14.5,6v13h3V6H14.5z" style="fill:#E6E6E6;"></path></g></g></g></symbol><symbol id="menu" viewBox="0 0 32 32" xmlns="http://www.w3.org/2000/svg"><defs><style><![CDATA[.cls-1{fill:none;stroke:#000;stroke-linecap:round;stroke-linejoin:round;stroke-width:2px;}]]></style></defs><g data-name="67-menu"><rect class="cls-1" height="12" width="12" x="1" y="1"></rect><rect class="cls-1" height="12" width="12" x="1" y="19"></rect><rect class="cls-1" height="12" width="12" x="19" y="19"></rect><rect class="cls-1" height="12" width="12" x="19" y="1"></rect></g></symbol><symbol id="profile" enable-background="new 0 0 26 26" version="1.1" viewBox="0 0 26 26" xml:space="preserve" xmlns="http://www.w3.org/2000/svg" xmlns:xlink="http://www.w3.org/1999/xlink"><path d="M25,13c0-6.6166992-5.3828125-12-12-12S1,6.3833008,1,13c0,3.383606,1.413208,6.4386597,3.673645,8.6222534  c0.0529175,0.0689087,0.1156006,0.1247559,0.1889648,0.171814C7.0038452,23.7769165,9.8582764,25,13,25  s5.9961548-1.2230835,8.1373901-3.2059326c0.0733643-0.0470581,0.1360474-0.1029053,0.1889648-0.171814  C23.586792,19.4386597,25,16.383606,25,13z M13,2.5c5.7900391,0,10.5,4.7104492,10.5,10.5  c0,2.4549561-0.8532715,4.7108154-2.2702637,6.5008545c-0.6505127-2.0978394-2.5076294-3.7401123-5.0281372-4.4957886  c1.3735962-0.9940796,2.2720337-2.6046143,2.2720337-4.4244995c0-3.0141602-2.4550781-5.4663086-5.4736328-5.4663086  s-5.4736328,2.4521484-5.4736328,5.4663086c0,1.8198853,0.8984375,3.4304199,2.2720337,4.4244995  c-2.5205078,0.7556763-4.3776245,2.3979492-5.0281372,4.4957886C3.3532715,17.7108154,2.5,15.4549561,2.5,13  C2.5,7.2104492,7.2099609,2.5,13,2.5z M9.0263672,10.5805664c0-2.1870117,1.7822266-3.9663086,3.9736328-3.9663086  s3.9736328,1.7792969,3.9736328,3.9663086S15.1914063,14.546875,13,14.546875S9.0263672,12.7675781,9.0263672,10.5805664z   M6.0307617,20.8319702C6.2562256,18.0820313,9.1723633,16.046875,13,16.046875s6.7437744,2.0351563,6.9692383,4.7850952  C18.1130981,22.4855347,15.6757202,23.5,13,23.5S7.8869019,22.4855347,6.0307617,20.8319702z"></path></symbol><symbol id="pen" enable-background="new 0 0 128 128" height="128px" version="1.1" viewBox="0 0 128 128" width="128px" xml:space="preserve" xmlns="http://www.w3.org/2000/svg" xmlns:xlink="http://www.w3.org/1999/xlink"><path d="M123.315,16L112.003,4.686C108.878,1.563,104.78,0,100.687,0s-8.188,1.563-11.313,4.686l-68.69,68.689  C17.563,76.5,8.004,88.586,8,92.68L0,128l35.313-8c0,0,16.188-9.563,19.313-12.688l68.69-68.687  C129.562,32.375,129.562,22.243,123.315,16z M10.605,117.398l5.195-22.953c0.074-0.328,0.129-0.664,0.16-0.992  c0.016-0.047,0.059-0.117,0.078-0.164l18.09,18.094c-0.605,0.367-1.215,0.734-1.813,1.094L10.605,117.398z M48.984,101.641  c-0.906,0.859-4.039,2.977-7.867,5.414L20.391,86.328c2.125-2.914,4.492-5.844,5.949-7.297l51.722-51.718l22.625,22.625  L48.984,101.641z M117.659,32.969l-11.316,11.313L83.718,21.657l11.316-11.313C96.542,8.829,98.55,8,100.687,8  s4.148,0.836,5.66,2.344l11.313,11.313c1.512,1.508,2.34,3.516,2.34,5.656C119.999,29.446,119.167,31.461,117.659,32.969z"></path></symbol><symbol id="success" height="32" style="overflow:visible;enable-background:new 0 0 32 32" viewBox="0 0 32 32" width="32" xml:space="preserve" xmlns="http://www.w3.org/2000/svg" xmlns:xlink="http://www.w3.org/1999/xlink"><g><g><g><circle cx="16" cy="16" r="16" style="fill:#19D873;"></circle><polygon points="14,17.9 14,17.9 14,17.9 10.1,14 8,16.1         14,22.1 24,12.1 21.9,10" style="fill:#E6E6E6;"></polygon></g></g></g></symbol></svg>